<svg width="48" height="48" viewBox="0 0 48 48" fill="none" xmlns="http://www.w3.org/2000/svg">
<path d="M16.6687 15.375H11.3062C11.1197 15.375 10.9408 15.3009 10.809 15.1691C10.6771 15.0372 10.603 14.8584 10.603 14.6719V3.51562C10.603 3.32914 10.6771 3.1503 10.809 3.01844C10.9408 2.88658 11.1197 2.8125 11.3062 2.8125H16.6687C16.8551 2.8125 17.034 2.88658 17.1658 3.01844C17.2977 3.1503 17.3718 3.32914 17.3718 3.51562V14.6719C17.3718 14.8584 17.2977 15.0372 17.1658 15.1691C17.034 15.3009 16.8551 15.375 16.6687 15.375ZM12.0093 13.9688H15.9655V4.21875H12.0093V13.9688Z" fill="#8B8893"/>
<path d="M23.6438 13.2656H4.3313C2.778 13.2656 1.5188 14.5248 1.5188 16.0781V41.6719C1.5188 43.2252 2.778 44.4844 4.3313 44.4844H23.6438C25.1971 44.4844 26.4563 43.2252 26.4563 41.6719V16.0781C26.4563 14.5248 25.1971 13.2656 23.6438 13.2656Z" fill="#227FC0"/>
<path d="M23.6438 13.2656H20.8313C21.5772 13.2656 22.2926 13.5619 22.82 14.0894C23.3475 14.6168 23.6438 15.3322 23.6438 16.0781V41.6719C23.6438 42.4178 23.3475 43.1332 22.82 43.6606C22.2926 44.1881 21.5772 44.4844 20.8313 44.4844H23.6438C24.3897 44.4844 25.1051 44.1881 25.6325 43.6606C26.16 43.1332 26.4563 42.4178 26.4563 41.6719V16.0781C26.4563 15.3322 26.16 14.6168 25.6325 14.0894C25.1051 13.5619 24.3897 13.2656 23.6438 13.2656Z" fill="#1067AE"/>
<path d="M4.84692 44.4844H7.65942V45.8906C7.65942 46.2636 7.51127 46.6213 7.24754 46.885C6.98382 47.1487 6.62613 47.2969 6.25317 47.2969C5.88021 47.2969 5.52253 47.1487 5.2588 46.885C4.99508 46.6213 4.84692 46.2636 4.84692 45.8906V44.4844ZM20.3157 44.4844H23.1282V45.8906C23.1282 46.2636 22.98 46.6213 22.7163 46.885C22.4526 47.1487 22.0949 47.2969 21.7219 47.2969C21.349 47.2969 20.9913 47.1487 20.7276 46.885C20.4638 46.6213 20.3157 46.2636 20.3157 45.8906V44.4844ZM19.6594 4.21875H8.50317C8.31669 4.21875 8.13785 4.14467 8.00599 4.01281C7.87413 3.88095 7.80005 3.70211 7.80005 3.51562V2.10938C7.80079 1.55016 8.02327 1.01407 8.41869 0.618644C8.81412 0.22322 9.35021 0.000744129 9.90942 0L18.2532 0C18.8125 0.000496484 19.3487 0.222893 19.7442 0.61837C20.1397 1.01385 20.3621 1.55009 20.3625 2.10938V3.51562C20.3625 3.70211 20.2885 3.88095 20.1566 4.01281C20.0247 4.14467 19.8459 4.21875 19.6594 4.21875ZM9.2063 2.8125H18.9563V2.10938C18.9563 1.92289 18.8822 1.74405 18.7504 1.61219C18.6185 1.48033 18.4397 1.40625 18.2532 1.40625H9.90942C9.72302 1.4065 9.54432 1.48066 9.41251 1.61246C9.28071 1.74427 9.20655 1.92297 9.2063 2.10938V2.8125Z" fill="#8B8893"/>
<path d="M13.9875 41.805C13.8011 41.805 13.6222 41.7309 13.4904 41.5991C13.3585 41.4672 13.2844 41.2884 13.2844 41.1019V16.6481C13.2844 16.4617 13.3585 16.2828 13.4904 16.1509C13.6222 16.0191 13.8011 15.945 13.9875 15.945C14.174 15.945 14.3529 16.0191 14.4847 16.1509C14.6166 16.2828 14.6907 16.4617 14.6907 16.6481V41.1019C14.6907 41.2884 14.6166 41.4672 14.4847 41.5991C14.3529 41.7309 14.174 41.805 13.9875 41.805ZM8.36255 38.9925C8.17607 38.9925 7.99723 38.9184 7.86536 38.7866C7.7335 38.6547 7.65942 38.4759 7.65942 38.2894V19.4606C7.65942 19.2742 7.7335 19.0953 7.86536 18.9634C7.99723 18.8316 8.17607 18.7575 8.36255 18.7575C8.54903 18.7575 8.72787 18.8316 8.85973 18.9634C8.9916 19.0953 9.06567 19.2742 9.06567 19.4606V38.2894C9.06567 38.4759 8.9916 38.6547 8.85973 38.7866C8.72787 38.9184 8.54903 38.9925 8.36255 38.9925ZM19.6125 38.9925C19.4261 38.9925 19.2472 38.9184 19.1154 38.7866C18.9835 38.6547 18.9094 38.4759 18.9094 38.2894V19.4606C18.9094 19.2742 18.9835 19.0953 19.1154 18.9634C19.2472 18.8316 19.4261 18.7575 19.6125 18.7575C19.799 18.7575 19.9779 18.8316 20.1097 18.9634C20.2416 19.0953 20.3157 19.2742 20.3157 19.4606V38.2894C20.3157 38.4759 20.2416 38.6547 20.1097 38.7866C19.9779 38.9184 19.799 38.9925 19.6125 38.9925Z" fill="white"/>
<path d="M26.4562 25.2188V41.6719C26.4562 42.4178 26.1598 43.1332 25.6324 43.6606C25.105 44.1881 24.3896 44.4844 23.6437 44.4844H16.4802V28.0312C16.4802 27.2853 16.7765 26.57 17.304 26.0425C17.8314 25.5151 18.5468 25.2188 19.2927 25.2188H26.4562Z" fill="#1067AE"/>
<path d="M43.6687 25.2141H20.699C19.1457 25.2141 17.8865 26.4732 17.8865 28.0266V44.4844C17.8865 46.0377 19.1457 47.2969 20.699 47.2969H43.6687C45.222 47.2969 46.4812 46.0377 46.4812 44.4844V28.0266C46.4812 26.4732 45.222 25.2141 43.6687 25.2141Z" fill="#B28B6A"/>
<path d="M43.6687 25.2187H40.8562C41.6021 25.2187 42.3175 25.5151 42.845 26.0425C43.3724 26.5699 43.6687 27.2853 43.6687 28.0312V44.4844C43.6687 45.2303 43.3724 45.9457 42.845 46.4731C42.3175 47.0005 41.6021 47.2969 40.8562 47.2969H43.6687C44.4146 47.2969 45.13 47.0005 45.6575 46.4731C46.1849 45.9457 46.4812 45.2303 46.4812 44.4844V28.0312C46.4812 27.2853 46.1849 26.5699 45.6575 26.0425C45.13 25.5151 44.4146 25.2187 43.6687 25.2187ZM35.0953 25.2075H37.9078V20.8444C37.9078 20.4714 37.7596 20.1137 37.4959 19.85C37.2322 19.5863 36.8745 19.4381 36.5015 19.4381H27.8662C27.4933 19.4381 27.1356 19.5863 26.8718 19.85C26.6081 20.1137 26.46 20.4714 26.46 20.8444V25.2075H29.2725V22.2506H35.0953V25.2075Z" fill="#A17855"/>
<path d="M41.8023 25.2141H39.0544V47.2969H41.8023V25.2141Z" fill="#F69531"/>
<path d="M42.6647 34.5872H38.1929C37.9858 34.5872 37.8179 34.7551 37.8179 34.9622V38.2659C37.8179 38.473 37.9858 38.6409 38.1929 38.6409H42.6647C42.8719 38.6409 43.0397 38.473 43.0397 38.2659V34.9622C43.0397 34.7551 42.8719 34.5872 42.6647 34.5872Z" fill="white"/>
<path d="M42.6638 34.5872H41.2576C41.357 34.5872 41.4524 34.6267 41.5227 34.697C41.5931 34.7673 41.6326 34.8627 41.6326 34.9622V38.265C41.6326 38.3645 41.5931 38.4598 41.5227 38.5302C41.4524 38.6005 41.357 38.64 41.2576 38.64H42.6638C42.7633 38.64 42.8587 38.6005 42.929 38.5302C42.9993 38.4598 43.0388 38.3645 43.0388 38.265V34.9622C43.0388 34.8627 42.9993 34.7673 42.929 34.697C42.8587 34.6267 42.7633 34.5872 42.6638 34.5872Z" fill="#E1E1E3"/>
<path d="M25.3135 25.2141H22.5657V47.2969H25.3135V25.2141Z" fill="#F69531"/>
<path d="M26.176 34.5872H21.7041C21.497 34.5872 21.3291 34.7551 21.3291 34.9622V38.2659C21.3291 38.473 21.497 38.6409 21.7041 38.6409H26.176C26.3831 38.6409 26.551 38.473 26.551 38.2659V34.9622C26.551 34.7551 26.3831 34.5872 26.176 34.5872Z" fill="white"/>
<path d="M26.175 34.5872H24.7688C24.8683 34.5872 24.9636 34.6267 25.034 34.697C25.1043 34.7673 25.1438 34.8627 25.1438 34.9622V38.265C25.1438 38.3645 25.1043 38.4598 25.034 38.5302C24.9636 38.6005 24.8683 38.64 24.7688 38.64H26.175C26.2745 38.64 26.3699 38.6005 26.4402 38.5302C26.5105 38.4598 26.55 38.3645 26.55 38.265V34.9622C26.55 34.8627 26.5105 34.7673 26.4402 34.697C26.3699 34.6267 26.2745 34.5872 26.175 34.5872Z" fill="#E1E1E3"/>
<path d="M34.2927 28.0266H30.074C29.2973 28.0266 28.6677 28.6561 28.6677 29.4328V30.3994C28.6677 31.176 29.2973 31.8056 30.074 31.8056H34.2927C35.0694 31.8056 35.699 31.176 35.699 30.3994V29.4328C35.699 28.6561 35.0694 28.0266 34.2927 28.0266Z" fill="white"/>
<path d="M34.2927 28.0312H32.8865C33.2594 28.0312 33.6171 28.1794 33.8808 28.4431C34.1446 28.7069 34.2927 29.0645 34.2927 29.4375V30.4041C34.2927 30.777 34.1446 31.1347 33.8808 31.3984C33.6171 31.6622 33.2594 31.8103 32.8865 31.8103H34.2927C34.6657 31.8103 35.0234 31.6622 35.2871 31.3984C35.5508 31.1347 35.699 30.777 35.699 30.4041V29.4375C35.699 29.0645 35.5508 28.7069 35.2871 28.4431C35.0234 28.1794 34.6657 28.0312 34.2927 28.0312Z" fill="#E1E1E3"/>
</svg>
