<svg width="48" height="48" viewBox="0 0 48 48" fill="none" xmlns="http://www.w3.org/2000/svg">
<g clip-path="url(#clip0_2060_401)">
<path d="M19 18V19C14.9302 19.1803 10.8681 18.4988 7.08001 17C7.32546 15.5115 8.12261 14.1701 9.31267 13.243C10.5027 12.3159 11.9984 11.8711 13.5016 11.9972C15.0049 12.1233 16.4055 12.8111 17.4245 13.9235C18.4435 15.036 19.006 16.4914 19 18ZM32.16 38.88L31.57 43H22L18 33L18 41.79L15 41.57L15 47L4.00001 47C3.20436 47 2.44129 46.6839 1.87869 46.1213C1.31608 45.5587 1.00001 44.7956 1.00001 44L1.00001 30.12C0.998449 29.232 1.29241 28.3687 1.83558 27.6662C2.37874 26.9637 3.14022 26.462 4.00001 26.24L8.59001 25.09C9.14737 25.6864 9.82056 26.1627 10.5684 26.49C11.3162 26.8172 12.123 26.9884 12.9392 26.9931C13.7555 26.9978 14.5642 26.8358 15.3157 26.5172C16.0672 26.1986 16.7458 25.7299 17.31 25.14L20.31 26.34C20.8315 26.5488 21.3031 26.865 21.6942 27.2682C22.0853 27.6714 22.3871 28.1524 22.58 28.68L26 38L32.16 38.88Z" fill="#292D32"/>
<path d="M43 18C42.9987 21.4473 41.6283 24.753 39.19 27.19L30 18L30 5C33.4478 5 36.7544 6.36964 39.1924 8.80761C41.6304 11.2456 43 14.5522 43 18Z" fill="#FF5454"/>
<path d="M39 41C39.5523 41 40 40.5523 40 40C40 39.4477 39.5523 39 39 39C38.4477 39 38 39.4477 38 40C38 40.5523 38.4477 41 39 41Z" fill="#292D32"/>
<path d="M33 22C32.8684 22.0008 32.7379 21.9755 32.6161 21.9258C32.4943 21.876 32.3835 21.8027 32.29 21.71L29.29 18.71C29.1973 18.6166 29.124 18.5057 29.0742 18.3839C29.0245 18.2621 28.9993 18.1316 29 18L29 12C29 11.7348 29.1054 11.4804 29.2929 11.2929C29.4804 11.1054 29.7348 11 30 11C30.2652 11 30.5196 11.1054 30.7071 11.2929C30.8947 11.4804 31 11.7348 31 12L31 17.59L33.71 20.29C33.851 20.4299 33.9472 20.6086 33.9863 20.8033C34.0254 20.9981 34.0056 21.2 33.9294 21.3835C33.8532 21.5669 33.7241 21.7235 33.5586 21.8333C33.3931 21.9431 33.1986 22.0012 33 22Z" fill="#292D32"/>
<path d="M30 20C29.6044 20 29.2178 19.8827 28.8889 19.6629C28.56 19.4432 28.3036 19.1308 28.1522 18.7654C28.0009 18.3999 27.9613 17.9978 28.0384 17.6098C28.1156 17.2219 28.3061 16.8655 28.5858 16.5858C28.8655 16.3061 29.2219 16.1156 29.6098 16.0384C29.9978 15.9613 30.3999 16.0009 30.7654 16.1522C31.1308 16.3036 31.4432 16.56 31.6629 16.8889C31.8827 17.2178 32 17.6044 32 18C32 18.5304 31.7893 19.0391 31.4142 19.4142C31.0391 19.7893 30.5304 20 30 20Z" fill="#292D32"/>
<path d="M47 32H41.3C43.4364 30.2837 45.1528 28.1023 46.3182 25.622C47.4836 23.1417 48.0673 20.428 48.0247 17.6879C47.9822 14.9478 47.3146 12.2536 46.0728 9.81068C44.8309 7.36775 43.0477 5.24062 40.8591 3.59146C38.6704 1.9423 36.1341 0.81466 33.4434 0.294503C30.7528 -0.225653 27.979 -0.124589 25.3333 0.589992C22.6877 1.30457 20.2401 2.6138 18.1773 4.41786C16.1144 6.22192 14.4907 8.47318 13.43 11C12.4752 10.9412 11.5185 11.0788 10.619 11.4042C9.71944 11.7295 8.89612 12.2358 8.19987 12.8918C7.50361 13.5478 6.94919 14.3395 6.57083 15.218C6.19247 16.0966 5.99819 17.0434 6 18C6 20.89 5.78 22.49 6.94 24.48L3.78 25.27C2.69969 25.5418 1.7411 26.1666 1.05631 27.0452C0.371514 27.9239 -0.000250253 29.006 1.26388e-07 30.12L1.26388e-07 44C1.26388e-07 45.0609 0.421428 46.0783 1.17157 46.8284C1.92172 47.5786 2.93913 48 4 48L45 48C45.2427 48.0024 45.4779 47.9165 45.6619 47.7582C45.8459 47.6 45.966 47.3803 46 47.14L48 33.14C48.0202 32.9974 48.0093 32.8522 47.9682 32.7142C47.927 32.5762 47.8566 32.4488 47.7616 32.3405C47.6667 32.2323 47.5495 32.1458 47.418 32.087C47.2866 32.0283 47.144 31.9986 47 32ZM13 13C14.3261 13 15.5979 13.5268 16.5355 14.4645C17.4732 15.4021 18 16.6739 18 18C14.6903 18.0652 11.3964 17.5264 8.28 16.41C8.61209 15.4199 9.24587 14.5586 10.0924 13.947C10.9389 13.3354 11.9557 13.0043 13 13ZM8 18.44C11.2181 19.534 14.6016 20.0618 18 20V21C18 22.3261 17.4732 23.5979 16.5355 24.5355C15.5979 25.4732 14.3261 26 13 26C11.6739 26 10.4021 25.4732 9.46447 24.5355C8.52678 23.5979 8 22.3261 8 21L8 18.44ZM19.53 45.53C19.3836 45.6784 19.2092 45.7963 19.017 45.8769C18.8247 45.9576 18.6185 45.9994 18.41 46H16L16 42.65L18.53 42.83C18.8331 42.8513 19.1237 42.9595 19.3669 43.1417C19.6101 43.3239 19.7956 43.5724 19.9011 43.8574C20.0066 44.1423 20.0278 44.4517 19.9619 44.7484C19.8961 45.045 19.7462 45.3164 19.53 45.53ZM19 40.89L19 38.19L20.27 41.36C19.8796 41.1257 19.4489 40.9663 19 40.89ZM30.13 46L21.61 46C21.9439 45.3898 22.0802 44.691 22 44H30.46L30.13 46ZM30.7 42H22.7L18.95 32.63C18.8754 32.3978 18.7185 32.2009 18.5088 32.0763C18.2991 31.9517 18.0512 31.908 17.8115 31.9535C17.5719 31.9989 17.3572 32.1304 17.2077 32.3231C17.0582 32.5159 16.9844 32.7566 17 33L17 40.71L8 40.07L8 33C8 32.7348 7.89464 32.4804 7.70711 32.2929C7.51957 32.1054 7.26522 32 7 32C6.73478 32 6.48043 32.1054 6.29289 32.2929C6.10536 32.4804 6 32.7348 6 33L6 41C5.99938 41.2535 6.09507 41.4978 6.26773 41.6835C6.44038 41.8691 6.6771 41.9823 6.93 42L14 42.5L14 46L4 46C3.46957 46 2.96086 45.7893 2.58579 45.4142C2.21071 45.0391 2 44.5304 2 44L2 30.12C1.99996 29.4514 2.22331 28.8018 2.63457 28.2746C3.04584 27.7474 3.62145 27.3727 4.27 27.21L8.32 26.21C9.58523 27.3461 11.2208 27.9829 12.9212 28.0013C14.6215 28.0197 16.2705 27.4185 17.56 26.31L19.97 27.31C20.3543 27.4597 20.7036 27.6871 20.9961 27.9778C21.2886 28.2686 21.518 28.6166 21.67 29C21.99 29.95 20.42 25.56 25.06 38.32C25.1218 38.4908 25.2289 38.6415 25.3698 38.756C25.5107 38.8705 25.6802 38.9445 25.86 38.97L31.03 39.71L30.7 42ZM23.64 10.22L22.24 8.83C24.1431 7.20485 26.5067 6.21536 29 6V8C29 8.26522 29.1054 8.51957 29.2929 8.70711C29.4804 8.89464 29.7348 9 30 9C30.2652 9 30.5196 8.89464 30.7071 8.70711C30.8946 8.51957 31 8.26522 31 8V6.05C33.4845 6.25433 35.8421 7.23374 37.74 8.85L36.36 10.22C36.219 10.3599 36.1228 10.5386 36.0837 10.7333C36.0447 10.9281 36.0645 11.13 36.1406 11.3135C36.2168 11.4969 36.3459 11.6535 36.5114 11.7633C36.6769 11.8731 36.8714 11.9312 37.07 11.93C37.62 11.93 37.75 11.67 39.15 10.26C40.7844 12.1516 41.7815 14.5098 42 17H40C39.7348 17 39.4804 17.1054 39.2929 17.2929C39.1054 17.4804 39 17.7348 39 18C39 18.2652 39.1054 18.5196 39.2929 18.7071C39.4804 18.8946 39.7348 19 40 19H42C41.7957 21.4845 40.8163 23.8421 39.2 25.74L37.83 24.36C37.7368 24.2668 37.6261 24.1928 37.5042 24.1423C37.3824 24.0919 37.2519 24.0659 37.12 24.0659C36.9881 24.0659 36.8576 24.0919 36.7358 24.1423C36.6139 24.1928 36.5032 24.2668 36.41 24.36C36.3168 24.4532 36.2428 24.5639 36.1923 24.6858C36.1419 24.8076 36.1159 24.9381 36.1159 25.07C36.1159 25.2019 36.1419 25.3324 36.1923 25.4543C36.2428 25.5761 36.3168 25.6868 36.41 25.78L37.79 27.15C35.8849 28.794 33.5077 29.7918 31 30V28C31 27.7348 30.8946 27.4804 30.7071 27.2929C30.5196 27.1054 30.2652 27 30 27C29.7348 27 29.4804 27.1054 29.2929 27.2929C29.1054 27.4804 29 27.7348 29 28V30C26.9898 29.824 25.0582 29.1354 23.39 28C22.39 25.87 20.82 25.46 18.93 24.71C20.27 22.55 20 20.84 20 18C19.9948 16.5637 19.5403 15.1649 18.7 14C19.1831 12.6432 19.9044 11.3835 20.83 10.28C22.32 11.78 22.39 11.97 22.93 11.97C23.1373 11.9804 23.3427 11.926 23.5177 11.8144C23.6927 11.7028 23.8286 11.5395 23.9066 11.3472C23.9846 11.1549 24.0009 10.943 23.9531 10.7411C23.9054 10.5391 23.7959 10.357 23.64 10.22ZM31.31 37.75L26.74 37.09L26.19 35.58C27.9546 35.9734 29.7693 36.0915 31.57 35.93L31.31 37.75ZM31.87 33.86C29.6852 34.1244 27.4694 33.9372 25.36 33.31L24.47 30.85C27.0108 31.9428 29.8183 32.2586 32.5383 31.7574C35.2583 31.2563 37.769 29.9607 39.7534 28.0341C41.7379 26.1076 43.1072 23.6364 43.6887 20.9324C44.2702 18.2284 44.0377 15.4128 43.0206 12.8408C42.0035 10.2688 40.2474 8.05568 37.9738 6.48071C35.7002 4.90575 33.0111 4.0395 30.2457 3.99128C27.4803 3.94305 24.7626 4.71501 22.4355 6.20975C20.1084 7.70449 18.2762 9.85503 17.17 12.39C16.6401 11.9708 16.0502 11.6337 15.42 11.39C16.4658 9.0827 18.0444 7.05668 20.0261 5.47864C22.0078 3.9006 24.3358 2.81566 26.8187 2.31307C29.3016 1.81048 31.8683 1.90462 34.3077 2.58774C36.7471 3.27086 38.9894 4.52344 40.8501 6.2424C42.7109 7.96137 44.1369 10.0976 45.0108 12.4753C45.8847 14.853 46.1816 17.4043 45.8769 19.9191C45.5723 22.4339 44.6749 24.8405 43.2585 26.9408C41.8422 29.0411 39.9474 30.775 37.73 32L33 32C32.7573 31.9976 32.5221 32.0835 32.3381 32.2418C32.1541 32.4 32.034 32.6197 32 32.86L31.87 33.86ZM44.13 46L32.13 46C33.33 37.62 32.96 40.22 33.85 34L45.85 34L44.13 46Z" fill="#292D32"/>
</g>
<defs>
<clipPath id="clip0_2060_401">
<rect width="48" height="48" fill="white"/>
</clipPath>
</defs>
</svg>
