<svg width="56" height="64" viewBox="0 0 56 64" fill="none" xmlns="http://www.w3.org/2000/svg">
<g clip-path="url(#clip0_172_1208)">
<path d="M42.2601 18.7329C42.8604 18.9403 43.4992 19.0767 44.1684 19.0767C47.5067 19.0767 50.2171 16.294 50.2171 12.8665C50.2171 9.4417 47.5067 6.65479 44.1685 6.65479C40.8303 6.65479 38.124 9.4417 38.124 12.8665C38.124 13.4091 38.2139 13.929 38.3384 14.4289C40.0725 15.3395 41.4415 16.8437 42.2602 18.7329H42.2601Z" fill="#292D32"/>
<path d="M49.8561 20.4318H42.8214C43.0162 21.2501 43.1146 22.0894 43.1146 22.9318V41.2316C43.1146 43.713 41.162 45.7244 38.7683 45.7244C38.3272 45.7244 37.9013 45.6463 37.4976 45.5185V64H43.5475V46.0682H44.7851V64H50.842V28.8139H51.5251V43.5994C51.5251 44.8793 52.5347 45.9133 53.7792 45.9133C55.0237 45.9133 56.0001 44.8793 56.0001 43.5994V27.2031C56.0001 23.4645 53.4943 20.4318 49.8561 20.4318V20.4318Z" fill="#292D32"/>
<path d="M11.8331 19.0767C12.5232 19.0767 13.1703 18.9347 13.7912 18.7187C14.6126 16.8949 15.9609 15.4176 17.6398 14.5C17.7808 13.9758 17.8803 13.4346 17.8803 12.8665C17.8803 9.4417 15.1728 6.65479 11.8331 6.65479C8.49358 6.65479 5.78735 9.4417 5.78735 12.8665C5.78735 16.2939 8.49364 19.0767 11.8331 19.0767Z" fill="#292D32"/>
<path d="M12.8854 41.2316V22.9318C12.8854 22.0626 13.0015 21.2259 13.1965 20.4319H6.14958C2.50574 20.4319 0 23.4645 0 27.2031V43.5995C0 44.8793 0.977707 45.9134 2.22358 45.9134C3.46685 45.9134 4.47491 44.8793 4.47491 43.5995V28.8139H5.16089V64H11.2164V46.0683H12.4554V64H18.5068V45.5157C18.0974 45.6449 17.6757 45.7245 17.2304 45.7245C14.8367 45.7245 12.8855 43.7131 12.8855 41.2316L12.8854 41.2316Z" fill="#292D32"/>
<path d="M28.0484 13.8637C31.7724 13.8637 34.7953 10.7571 34.7953 6.93329C34.7953 3.10647 31.7724 0 28.0484 0C24.3202 0 21.2974 3.10647 21.2974 6.93329C21.2974 10.7571 24.3202 13.8637 28.0484 13.8637Z" fill="#1067AE"/>
<path d="M38.7682 43.8167C40.1608 43.8167 41.2546 42.6576 41.2546 41.2316V22.9317C41.2546 22.0554 41.1233 21.2173 40.8908 20.4318C40.0129 17.4886 37.5997 15.3735 34.3943 15.3735H31.8029L31.504 15.6335L28.578 18.2116L30.7326 24.1406L27.8548 30.5596L25.273 24.2428L27.2367 18.2116L24.4806 15.6421L24.193 15.3735H21.7011C18.4929 15.3735 16.0203 17.4886 15.1228 20.4318C14.8744 21.2406 14.748 22.0837 14.748 22.9317V41.2315C14.748 42.6576 15.8433 43.8167 17.2303 43.8167C17.6963 43.8167 18.1319 43.6747 18.5066 43.4474C18.804 43.2627 19.0681 43.0255 19.2686 42.74C19.5659 42.3125 19.7471 41.794 19.7471 41.2315V24.7315H20.6003V64H27.3528V43.9886H28.7316V64H35.4936V45.6577V24.7316H36.2556V41.2316C36.2556 41.7913 36.4382 42.3083 36.7356 42.7372C36.9359 43.0243 37.1987 43.2614 37.4974 43.4475C37.8735 43.6747 38.3023 43.8167 38.7682 43.8167Z" fill="#1067AE"/>
</g>
<defs>
<clipPath id="clip0_172_1208">
<rect width="56" height="64" fill="white"/>
</clipPath>
</defs>
</svg>
