<svg width="65" height="64" viewBox="0 0 65 64" fill="none" xmlns="http://www.w3.org/2000/svg">
<g clip-path="url(#clip0_172_1191)">
<path d="M16.5001 23.3333L25.1667 14.6666L31.1667 17.3333L37.1667 19.3333L41.1667 16L49.8334 25.3333L47.8334 29.3333L45.1667 36.6666L48.5001 40.6666L39.1667 49.3333L31.1667 46L27.1667 44.6666L24.5001 48L15.1667 38.6666L17.8334 32L19.8334 26.6666L16.5001 23.3333Z" fill="#FFDBC6"/>
<path d="M62.9059 14.322L57.1666 8.66671L51.5919 3.008C51.774 2.8194 51.8748 2.5668 51.8726 2.3046C51.8703 2.04241 51.7651 1.79159 51.5797 1.60619C51.3943 1.42078 51.1435 1.31561 50.8813 1.31333C50.6191 1.31105 50.3665 1.41185 50.1779 1.594L49.4719 2.3L38.8659 12.908C38.6784 13.0955 38.5731 13.3498 38.5731 13.615C38.5731 13.8802 38.6784 14.1345 38.8659 14.322L39.5739 15.03L38.1139 16.49L37.1799 17.42L33.5239 16.202C33.3475 16.1437 33.1584 16.1354 32.9776 16.1781C32.7969 16.2208 32.6315 16.3129 32.4999 16.444L31.7919 15.736C31.3477 15.3058 30.7841 15.0195 30.1747 14.9146C29.5652 14.8097 28.9384 14.8911 28.3759 15.148L26.8419 13.614L27.5479 12.908C27.7354 12.7205 27.8407 12.4662 27.8407 12.201C27.8407 11.9358 27.7354 11.6815 27.5479 11.494L16.9439 0.886004L16.2359 0.180004C16.0473 -0.00215423 15.7947 -0.102949 15.5325 -0.10067C15.2703 -0.0983918 15.0195 0.00677714 14.8341 0.192185C14.6487 0.377593 14.5435 0.628406 14.5412 0.890603C14.5389 1.1528 14.6397 1.4054 14.8219 1.594L9.16659 7.33337L3.50788 12.908C3.31928 12.7258 3.06668 12.6251 2.80448 12.6273C2.54228 12.6296 2.29147 12.7348 2.10606 12.9202C1.92066 13.1056 1.81549 13.3564 1.81321 13.6186C1.81093 13.8808 1.91172 14.1334 2.09388 14.322L2.80188 15.03L13.4079 25.638C13.5008 25.7311 13.6111 25.805 13.7326 25.8554C13.8541 25.9058 13.9843 25.9318 14.1159 25.9318C14.2474 25.9318 14.3777 25.9058 14.4991 25.8554C14.6206 25.805 14.731 25.7311 14.8239 25.638L15.5319 24.93L17.6539 27.052H17.6559L17.9199 27.32L16.7019 30.976C16.6432 31.1519 16.6346 31.3406 16.677 31.521C16.7194 31.7015 16.8111 31.8666 16.9419 31.998L16.2339 32.706C15.7963 33.1453 15.5053 33.7092 15.4008 34.3204C15.2962 34.9316 15.3832 35.5602 15.6499 36.12L14.1139 37.656L13.4059 36.948C13.2149 36.7671 12.9619 36.6663 12.6989 36.6663C12.4359 36.6663 12.1828 36.7671 11.9919 36.948L1.38588 47.556L0.679882 48.264C0.497724 48.4526 0.396929 48.7052 0.399208 48.9674C0.401486 49.2296 0.506655 49.4804 0.692063 49.6658C0.877471 49.8512 1.12828 49.9564 1.39048 49.9587C1.65268 49.961 1.90528 49.8602 2.09388 49.678L5.83325 53.3334L13.4079 60.992C13.315 61.085 13.2414 61.1953 13.1912 61.3168C13.141 61.4382 13.1152 61.5683 13.1153 61.6997C13.1154 61.8311 13.1414 61.9612 13.1918 62.0826C13.2421 62.2039 13.3159 62.3142 13.4089 62.407C13.5019 62.4999 13.6122 62.5735 13.7336 62.6237C13.8551 62.6739 13.9852 62.6997 14.1166 62.6996C14.248 62.6995 14.3781 62.6735 14.4994 62.6231C14.6208 62.5728 14.731 62.499 14.8239 62.406L15.5299 61.7L26.1359 51.092C26.3234 50.9045 26.4287 50.6502 26.4287 50.385C26.4287 50.1198 26.3234 49.8655 26.1359 49.678L25.4279 48.97L26.8879 47.51L27.8179 46.58L31.4739 47.798C31.6503 47.8554 31.8392 47.8632 32.0198 47.8205C32.2004 47.7779 32.3658 47.6864 32.4979 47.556L33.2059 48.264C33.6504 48.6938 34.214 48.9797 34.8232 49.0846C35.4325 49.1894 36.0593 49.1084 36.6219 48.852L38.1559 50.386L37.4499 51.092C37.2624 51.2795 37.1571 51.5338 37.1571 51.799C37.1571 52.0642 37.2624 52.3185 37.4499 52.506L48.0559 63.114L48.7619 63.82C48.8545 63.9136 48.9648 63.9879 49.0863 64.0386C49.2078 64.0894 49.3382 64.1155 49.4699 64.1155C49.6016 64.1155 49.7319 64.0894 49.8535 64.0386C49.975 63.9879 50.0853 63.9136 50.1779 63.82C50.3654 63.6325 50.4707 63.3782 50.4707 63.113C50.4707 62.8478 50.3654 62.5935 50.1779 62.406L55.8333 56.6667L61.4919 51.092C61.6805 51.2742 61.9331 51.375 62.1953 51.3727C62.4575 51.3704 62.7083 51.2652 62.8937 51.0798C63.0791 50.8944 63.1843 50.6436 63.1866 50.3814C63.1888 50.1192 63.088 49.8666 62.9059 49.678L62.1979 48.97L51.5919 38.362C51.4009 38.1811 51.1479 38.0803 50.8849 38.0803C50.6218 38.0803 50.3688 38.1811 50.1779 38.362L49.4699 39.07L47.3479 36.948L47.0799 36.68L48.2979 33.024C48.3565 32.8481 48.3652 32.6594 48.3228 32.479C48.2804 32.2985 48.1887 32.1334 48.0579 32.002L48.7659 31.294C49.6859 30.372 49.8819 28.996 49.3499 27.88L50.8859 26.344L51.5939 27.052C51.6868 27.1451 51.7971 27.219 51.9186 27.2694C52.0401 27.3198 52.1703 27.3458 52.3019 27.3458C52.4334 27.3458 52.5637 27.3198 52.6852 27.2694C52.8066 27.219 52.917 27.1451 53.0099 27.052L63.6159 16.444L64.3239 15.736C64.4167 15.6429 64.4903 15.5324 64.5405 15.4109C64.5906 15.2893 64.6163 15.1591 64.6161 15.0276C64.616 14.8961 64.5899 14.7659 64.5394 14.6445C64.4889 14.5231 64.415 14.4128 64.3219 14.32C64.2288 14.2272 64.1183 14.1536 63.9967 14.1034C63.8752 14.0533 63.745 14.0276 63.6135 14.0277C63.482 14.0279 63.3518 14.054 63.2304 14.1045C63.109 14.155 62.9987 14.2289 62.9059 14.322ZM9.87188 19.272L21.1859 7.958L25.4279 12.2L24.7219 12.906L19.7719 17.858L14.1159 23.516L9.87188 19.272ZM16.9439 23.516L21.1859 19.272L25.4279 15.028L27.5499 17.148C27.7412 17.329 27.9945 17.4299 28.2579 17.4299C28.5212 17.4299 28.7746 17.329 28.9659 17.148C29.1564 16.9662 29.4096 16.8648 29.6729 16.8648C29.9362 16.8648 30.1894 16.9662 30.3799 17.148L31.0879 17.856L28.9659 19.978L19.2339 29.71L20.0139 27.368C20.0727 27.1917 20.0812 27.0025 20.0385 26.8216C19.9957 26.6407 19.9034 26.4753 19.7719 26.344L18.4039 24.976L16.9439 23.516ZM19.7719 54.628L8.45788 43.314L12.7019 39.07L18.3579 44.728L23.3079 49.678L24.0139 50.384L19.7719 54.628ZM31.5219 45.706L27.8659 44.488C27.6896 44.4292 27.5004 44.4207 27.3195 44.4634C27.1386 44.5062 26.9732 44.5985 26.8419 44.73L26.1339 45.438L25.4739 46.098L24.0139 47.558L19.7719 43.314L15.5299 39.07L17.6519 36.948C18.0419 36.558 18.0419 35.924 17.6519 35.534C17.2619 35.144 17.2619 34.51 17.6519 34.12L30.3819 21.392C30.5724 21.2102 30.8256 21.1088 31.0889 21.1088C31.3522 21.1088 31.6054 21.2102 31.7959 21.392C31.983 21.5801 32.088 21.8347 32.088 22.1C32.088 22.3653 31.983 22.6199 31.7959 22.808L28.9679 25.636C28.7857 25.8246 28.6849 26.0772 28.6872 26.3394C28.6895 26.6016 28.7947 26.8524 28.9801 27.0378C29.1655 27.2232 29.4163 27.3284 29.6785 27.3307C29.9407 27.333 30.1933 27.2322 30.3819 27.05L33.2099 24.222C33.4009 24.0405 33.6544 23.9393 33.9179 23.9393C34.1814 23.9393 34.4348 24.0405 34.6259 24.222C34.7189 24.3147 34.7928 24.4249 34.8432 24.5462C34.8936 24.6676 34.9195 24.7976 34.9195 24.929C34.9195 25.0604 34.8936 25.1905 34.8432 25.3118C34.7928 25.4331 34.7189 25.5433 34.6259 25.636L31.7979 28.464C31.6104 28.6518 31.5051 28.9063 31.5053 29.1717C31.5055 29.4371 31.6111 29.6915 31.7989 29.879C31.9867 30.0665 32.2412 30.1717 32.5066 30.1716C32.772 30.1714 33.0264 30.0658 33.2139 29.878L36.0419 27.05C36.2305 26.8678 36.4831 26.767 36.7453 26.7693C37.0075 26.7716 37.2583 26.8768 37.4437 27.0622C37.6291 27.2476 37.7343 27.4984 37.7366 27.7606C37.7388 28.0228 37.638 28.2754 37.4559 28.464L34.6259 31.292C34.4384 31.4798 34.3331 31.7343 34.3333 31.9997C34.3335 32.2651 34.4391 32.5195 34.6269 32.707C34.8147 32.8945 35.0692 32.9997 35.3346 32.9996C35.6 32.9994 35.8544 32.8938 36.0419 32.706L38.8719 29.878C39.0624 29.6962 39.3156 29.5948 39.5789 29.5948C39.8422 29.5948 40.0954 29.6962 40.2859 29.878C40.4734 30.0655 40.5787 30.3198 40.5787 30.585C40.5787 30.8502 40.4734 31.1045 40.2859 31.292L34.3579 37.22L34.3499 37.228L30.4879 41.09C30.3057 41.2786 30.2049 41.5312 30.2072 41.7934C30.2095 42.0556 30.3147 42.3064 30.5001 42.4918C30.6855 42.6772 30.9363 42.7824 31.1985 42.7847C31.4607 42.787 31.7133 42.6862 31.9019 42.504L32.5019 41.904L32.5079 41.9L35.7699 38.638C36.1748 38.2348 36.7075 37.9851 37.2764 37.9318C37.8454 37.8785 38.4151 38.0249 38.8879 38.346L31.5219 45.706ZM55.1279 44.728L43.8139 56.042L39.5719 51.8L40.2779 51.094L45.2279 46.144L50.8839 40.486L55.1279 44.728ZM48.0559 40.484L43.8139 44.728L39.5719 48.972L37.4499 46.852C37.2584 46.6714 37.0051 46.5708 36.7419 46.5708C36.4787 46.5708 36.2254 46.6714 36.0339 46.852C35.8434 47.0338 35.5902 47.1352 35.3269 47.1352C35.0636 47.1352 34.8104 47.0338 34.6199 46.852L33.9119 46.144L41.0299 39.024C41.1436 38.9057 41.2255 38.7605 41.2679 38.602C41.4266 38.5601 41.5719 38.4781 41.6899 38.364L45.7659 34.29L44.9839 36.634C44.9251 36.8103 44.9166 36.9995 44.9593 37.1804C45.0021 37.3613 45.0944 37.5267 45.2259 37.658L46.5939 39.026L48.0559 40.484ZM49.4699 24.93L47.3479 27.052C46.9579 27.442 46.9579 28.076 47.3479 28.466C47.7379 28.856 47.7379 29.49 47.3479 29.88L40.2899 36.936C39.7372 36.4806 39.0826 36.1657 38.3819 36.018L41.6919 32.708C42.2538 32.1452 42.5694 31.3823 42.5694 30.587C42.5694 29.7917 42.2538 29.0288 41.6919 28.466C41.1593 27.9556 40.4553 27.6625 39.7179 27.644C39.6972 26.8914 39.392 26.1746 38.8639 25.638C38.3375 25.1209 37.6372 24.8185 36.8999 24.79C36.8704 24.045 36.562 23.3383 36.0359 22.81C35.5033 22.2996 34.7993 22.0065 34.0619 21.988C34.0418 21.2343 33.7358 20.5164 33.2059 19.98C32.9561 19.744 32.6653 19.5556 32.3479 19.424L33.4759 18.296L37.1319 19.514C37.3082 19.5728 37.4974 19.5813 37.6783 19.5386C37.8592 19.4958 38.0245 19.4035 38.1559 19.272L38.8639 18.564L39.5239 17.904L40.9839 16.444L45.2259 20.688L49.4699 24.93ZM52.2979 24.93L46.6419 19.272L41.6919 14.322L40.9859 13.616L45.2279 9.374L56.5419 20.688L52.2979 24.93Z" fill="#292D32"/>
<path d="M53.0071 21.3931C53.3976 21.0026 53.3976 20.3694 53.0071 19.9789C52.6165 19.5884 51.9834 19.5884 51.5928 19.9789C51.2023 20.3694 51.2023 21.0026 51.5929 21.3931C51.9834 21.7836 52.6166 21.7836 53.0071 21.3931Z" fill="#292D32"/>
<path d="M13.4072 44.021C13.7977 43.6305 13.7977 42.9973 13.4072 42.6068C13.0167 42.2163 12.3835 42.2163 11.993 42.6068C11.6025 42.9974 11.6025 43.6305 11.993 44.0211C12.3835 44.4116 13.0167 44.4116 13.4072 44.021Z" fill="#292D32"/>
<path d="M44.5198 52.5057C44.9103 52.1151 44.9103 51.482 44.5197 51.0914C44.1292 50.7009 43.496 50.7009 43.1055 51.0915C42.715 51.482 42.715 52.1152 43.1056 52.5057C43.4961 52.8962 44.1293 52.8962 44.5198 52.5057Z" fill="#292D32"/>
<path d="M21.8938 12.9085C22.2843 12.518 22.2843 11.8848 21.8938 11.4943C21.5032 11.1038 20.8701 11.1038 20.4796 11.4943C20.089 11.8848 20.089 12.518 20.4796 12.9085C20.8701 13.299 21.5033 13.299 21.8938 12.9085Z" fill="#292D32"/>
</g>
<defs>
<clipPath id="clip0_172_1191">
<rect width="64" height="64" fill="white" transform="translate(0.5)"/>
</clipPath>
</defs>
</svg>
