<svg width="48" height="48" viewBox="0 0 48 48" fill="none" xmlns="http://www.w3.org/2000/svg">
<path d="M13 10.5L45 10V27L43 36L5 36.5V18.5V12.5L13 10.5Z" fill="#67CF83"/>
<path d="M27.1058 14.0188C25.7457 14.0188 24.4162 14.4222 23.2854 15.178C22.1546 15.9338 21.2734 17.008 20.7532 18.2647C20.2331 19.5214 20.0973 20.9041 20.3632 22.238C20.629 23.5719 21.2845 24.7969 22.2468 25.7582C23.209 26.7194 24.4347 27.3737 25.7689 27.6381C27.103 27.9026 28.4856 27.7655 29.7418 27.244C30.998 26.7226 32.0713 25.8402 32.8259 24.7087C33.5805 23.5771 33.9825 22.2471 33.9811 20.887C33.9774 19.0654 33.2516 17.3195 31.9629 16.0321C30.6741 14.7447 28.9275 14.0207 27.1058 14.0188ZM27.1058 20.1812C27.5859 20.1821 28.0503 20.3517 28.4179 20.6604C28.7856 20.969 29.0331 21.397 29.1172 21.8696C29.2013 22.3422 29.1166 22.8293 28.878 23.2458C28.6394 23.6623 28.262 23.9817 27.8117 24.1482V24.6212C27.8117 24.8084 27.7374 24.9879 27.605 25.1203C27.4726 25.2527 27.2931 25.327 27.1058 25.327C26.9186 25.327 26.7391 25.2527 26.6067 25.1203C26.4743 24.9879 26.4 24.8084 26.4 24.6212V24.1482C26.0061 24.0041 25.6658 23.7429 25.4248 23.3996C25.1837 23.0564 25.0536 22.6476 25.0517 22.2282C25.0517 22.041 25.1261 21.8615 25.2585 21.7291C25.3908 21.5967 25.5704 21.5223 25.7576 21.5223C25.9448 21.5223 26.1244 21.5967 26.2567 21.7291C26.3891 21.8615 26.4635 22.041 26.4635 22.2282C26.4541 22.3177 26.4636 22.4083 26.4914 22.4939C26.5192 22.5795 26.5647 22.6583 26.6249 22.7252C26.6851 22.7921 26.7588 22.8456 26.841 22.8823C26.9233 22.9189 27.0123 22.9378 27.1023 22.9378C27.1923 22.9378 27.2814 22.9189 27.3636 22.8823C27.4458 22.8456 27.5195 22.7921 27.5797 22.7252C27.6399 22.6583 27.6854 22.5795 27.7132 22.4939C27.7411 22.4083 27.7506 22.3177 27.7411 22.2282C27.7411 22.0597 27.6742 21.8981 27.5551 21.779C27.4359 21.6598 27.2743 21.5929 27.1058 21.5929C26.624 21.5969 26.1564 21.4301 25.7857 21.1223C25.4151 20.8144 25.1653 20.3853 25.0808 19.911C24.9962 19.4366 25.0823 18.9477 25.3237 18.5307C25.5652 18.1137 25.9465 17.7957 26.4 17.6329V17.16C26.4 16.9728 26.4743 16.7932 26.6067 16.6608C26.7391 16.5285 26.9186 16.4541 27.1058 16.4541C27.2931 16.4541 27.4726 16.5285 27.605 16.6608C27.7374 16.7932 27.8117 16.9728 27.8117 17.16V17.647C28.2037 17.791 28.5423 18.0515 28.782 18.3934C29.0217 18.7353 29.1511 19.1424 29.1529 19.56C29.1529 19.7472 29.0785 19.9267 28.9461 20.0591C28.8138 20.1915 28.6342 20.2659 28.447 20.2659C28.2598 20.2659 28.0803 20.1915 27.9479 20.0591C27.8155 19.9267 27.7411 19.7472 27.7411 19.56C27.7421 19.4763 27.7263 19.3932 27.6947 19.3157C27.6631 19.2382 27.6164 19.1678 27.5572 19.1086C27.498 19.0495 27.4276 19.0027 27.3501 18.9711C27.2726 18.9395 27.1895 18.9237 27.1058 18.9247C26.9374 18.9247 26.7758 18.9916 26.6566 19.1108C26.5375 19.2299 26.4705 19.3915 26.4705 19.56C26.4705 19.7285 26.5375 19.8901 26.6566 20.0092C26.7758 20.1283 26.9374 20.1953 27.1058 20.1953V20.1812ZM17.647 20.1812H15.5294C15.3422 20.1812 15.1626 20.2555 15.0302 20.3879C14.8979 20.5203 14.8235 20.6998 14.8235 20.887C14.8235 21.0742 14.8979 21.2538 15.0302 21.3862C15.1626 21.5185 15.3422 21.5929 15.5294 21.5929H17.647C17.8342 21.5929 18.0138 21.5185 18.1462 21.3862C18.2785 21.2538 18.3529 21.0742 18.3529 20.887C18.3529 20.6998 18.2785 20.5203 18.1462 20.3879C18.0138 20.2555 17.8342 20.1812 17.647 20.1812ZM38.6682 20.1812H36.5505C36.3633 20.1812 36.1838 20.2555 36.0514 20.3879C35.919 20.5203 35.8447 20.6998 35.8447 20.887C35.8447 21.0742 35.919 21.2538 36.0514 21.3862C36.1838 21.5185 36.3633 21.5929 36.5505 21.5929H38.6682C38.8554 21.5929 39.0349 21.5185 39.1673 21.3862C39.2997 21.2538 39.3741 21.0742 39.3741 20.887C39.3741 20.6998 39.2997 20.5203 39.1673 20.3879C39.0349 20.2555 38.8554 20.1812 38.6682 20.1812Z" fill="#227639"/>
<path d="M44.1529 7.82117H10.0658C9.23815 7.82297 8.44449 8.15063 7.85661 8.73323C7.26872 9.31583 6.93391 10.1065 6.92463 10.9341C6.10375 10.9433 5.31907 11.2735 4.73858 11.8539C4.1581 12.4344 3.82792 13.2191 3.81875 14.04C2.99114 14.0493 2.20047 14.3841 1.61787 14.972C1.03527 15.5598 0.707614 16.3535 0.705811 17.1812V37.0306C0.705808 37.8643 1.03653 38.664 1.62541 39.2542C2.21429 39.8444 3.01325 40.1769 3.84699 40.1788H37.9411C38.7675 40.1752 39.5594 39.8467 40.1458 39.2643C40.7321 38.6819 41.066 37.8923 41.0752 37.0659C41.8973 37.0567 42.683 36.7255 43.2637 36.1435C43.8444 35.5615 44.1738 34.775 44.1811 33.9529C45.0093 33.9455 45.801 33.6113 46.384 33.023C46.967 32.4347 47.2941 31.64 47.294 30.8118V10.9623C47.2922 10.1298 46.9606 9.33194 46.372 8.74326C45.7833 8.15457 44.9854 7.82303 44.1529 7.82117ZM41.047 35.6541H6.95287C6.4942 35.6541 6.05432 35.4719 5.72999 35.1476C5.40566 34.8232 5.22346 34.3834 5.22346 33.9247V14.0753C5.2234 13.6215 5.40172 13.1858 5.71997 12.8623C6.03821 12.5388 6.47088 12.3533 6.92463 12.3459V30.8118C6.92463 31.6448 7.25558 32.4438 7.84466 33.0329C8.13635 33.3246 8.48263 33.556 8.86373 33.7138C9.24484 33.8717 9.65331 33.9529 10.0658 33.9529H42.7693C42.7638 34.406 42.5798 34.8387 42.2575 35.1572C41.935 35.4756 41.5001 35.6541 41.047 35.6541ZM44.2517 26.3435C44.2517 26.5307 44.1773 26.7103 44.0449 26.8427C43.9126 26.975 43.733 27.0494 43.5458 27.0494C42.709 27.0494 41.9064 27.3818 41.3147 27.9736C40.7229 28.5653 40.3905 29.3679 40.3905 30.2047C40.3905 30.3919 40.3161 30.5715 40.1838 30.7038C40.0514 30.8362 39.8718 30.9106 39.6846 30.9106H14.534C14.3468 30.9106 14.1673 30.8362 14.0349 30.7038C13.9025 30.5715 13.8282 30.3919 13.8282 30.2047C13.8282 29.3679 13.4957 28.5653 12.904 27.9736C12.3123 27.3818 11.5097 27.0494 10.6729 27.0494C10.4857 27.0494 10.3061 26.975 10.1737 26.8427C10.0414 26.7103 9.96699 26.5307 9.96699 26.3435V15.4376C9.96699 15.2504 10.0414 15.0709 10.1737 14.9385C10.3061 14.8061 10.4857 14.7318 10.6729 14.7318C11.5097 14.7318 12.3123 14.3993 12.904 13.8076C13.4957 13.2159 13.8282 12.4133 13.8282 11.5765C13.8282 11.3892 13.9025 11.2097 14.0349 11.0773C14.1673 10.9449 14.3468 10.8706 14.534 10.8706H39.6846C39.8718 10.8706 40.0514 10.9449 40.1838 11.0773C40.3161 11.2097 40.3905 11.3892 40.3905 11.5765C40.3905 12.4133 40.7229 13.2159 41.3147 13.8076C41.9064 14.3993 42.709 14.7318 43.5458 14.7318C43.733 14.7318 43.9126 14.8061 44.0449 14.9385C44.1773 15.0709 44.2517 15.2504 44.2517 15.4376V26.3435Z" fill="#227639"/>
</svg>
