<svg width="48" height="48" viewBox="0 0 48 48" fill="none" xmlns="http://www.w3.org/2000/svg">
<path d="M44 22V26C44 26.8 43.6 27.6 42.8 27.8L39 29.4C38.8 29.8 38.6 30.2 38.4 30.6L39.8 34.4C40.2 35.2 40 36 39.4 36.6L36.6 39.4C36 40 35.2 40.2 34.4 39.8L30.6 38.4C30.2 38.6 29.8 38.8 29.4 39L27.8 42.8C27.6 43.6 26.8 44 26 44H22C21.2 44 20.4 43.6 20.2 42.8L18.6 39C18.2 38.8 17.8 38.6 17.4 38.4L13.4 40C12.6 40.2 11.8 40.2 11.2 39.6L8.4 36.8C7.8 36.2 7.6 35.4 8 34.6L9.4 30.8C9.2 30.4 9 30 8.8 29.6L5 28C4.4 27.6 4 26.8 4 26V22C4 21.2 4.4 20.4 5.2 20.2L9 18.6C9.2 18 9.4 17.6 9.4 17.2L8 13.4C7.6 12.6 7.8 11.8 8.4 11.2L11.2 8.4C11.8 7.8 12.6 7.6 13.4 8L17.2 9.4C17.6 9.2 18 9.2 18.6 9L20.2 5.2C20.6 4.4 21.2 4 22 4H26C26.8 4 27.6 4.4 27.8 5.2L29.4 9C29.8 9.2 30.2 9.4 30.6 9.6L34.6 8C35.4 7.6 36.2 7.8 36.8 8.4L39.6 11.2C40.2 11.8 40.4 12.6 40 13.4L38.6 17.2C38.8 17.6 39 18 39.2 18.4L43 20C43.6 20.6 44 21.2 44 22Z" fill="#292D32"/>
<path d="M24 32C28.4183 32 32 28.4183 32 24C32 19.5817 28.4183 16 24 16C19.5817 16 16 19.5817 16 24C16 28.4183 19.5817 32 24 32Z" fill="white"/>
<path opacity="0.07" d="M42.8001 20.2L39.0001 18.6C38.8001 18.2 38.6001 17.8 38.4001 17.4L40.0001 13.4C40.4001 12.6 40.2001 11.8 39.6001 11.2L36.8001 8.4C36.2001 7.8 35.4001 7.6 34.6001 8L30.8001 9.4C30.4001 9.2 30.0001 9 29.6001 8.8L28.0001 5C27.6001 4.4 26.8001 4 26.0001 4H23.6001V44H26.0001C26.8001 44 27.6001 43.6 27.8001 42.8L29.4001 39C29.8001 38.8 30.2001 38.6 30.6001 38.4L34.4001 39.8C35.2001 40 36.0001 40 36.6001 39.4L39.4001 36.6C40.0001 36 40.2001 35.2 39.8001 34.4L38.4001 30.6C38.6001 30.2 38.8001 29.8 39.0001 29.4L42.8001 27.8C43.6001 27.4 44.0001 26.8 44.0001 26V22C44.0001 21.2 43.6001 20.6 42.8001 20.2Z" fill="black"/>
</svg>
