<svg width="48" height="48" viewBox="0 0 48 48" fill="none" xmlns="http://www.w3.org/2000/svg">
<path d="M44.4844 5.39062H6.51562C4.96232 5.39062 3.70312 6.64982 3.70312 8.20312V29.3906C3.70312 30.9439 4.96232 32.2031 6.51562 32.2031H44.4844C46.0377 32.2031 47.2969 30.9439 47.2969 29.3906V8.20312C47.2969 6.64982 46.0377 5.39062 44.4844 5.39062Z" fill="#FF4B4B"/>
<path d="M44.4844 5.39062H41.6719C42.4178 5.39062 43.1332 5.68694 43.6606 6.21439C44.1881 6.74183 44.4844 7.4572 44.4844 8.20312V29.3906C44.4844 30.1365 44.1881 30.8519 43.6606 31.3794C43.1332 31.9068 42.4178 32.2031 41.6719 32.2031H44.4844C45.2303 32.2031 45.9457 31.9068 46.4731 31.3794C47.0006 30.8519 47.2969 30.1365 47.2969 29.3906V8.20312C47.2969 7.4572 47.0006 6.74183 46.4731 6.21439C45.9457 5.68694 45.2303 5.39062 44.4844 5.39062Z" fill="#B71C1C"/>
<path d="M47.2969 10.2656H3.70312V16.2656H47.2969V10.2656Z" fill="#57565C"/>
<path d="M47.2969 10.2656H44.4844V16.2656H47.2969V10.2656Z" fill="#3C3B41"/>
<path d="M41.4844 14.3906H3.51562C1.96232 14.3906 0.703125 15.6498 0.703125 17.2031V38.3906C0.703125 39.9439 1.96232 41.2031 3.51562 41.2031H41.4844C43.0377 41.2031 44.2969 39.9439 44.2969 38.3906V17.2031C44.2969 15.6498 43.0377 14.3906 41.4844 14.3906Z" fill="#E24848"/>
<path d="M41.4844 14.3906H38.6719C39.4178 14.3906 40.1332 14.6869 40.6606 15.2144C41.1881 15.7418 41.4844 16.4572 41.4844 17.2031V38.3906C41.4844 39.1365 41.1881 39.8519 40.6606 40.3794C40.1332 40.9068 39.4178 41.2031 38.6719 41.2031H41.4844C42.2303 41.2031 42.9457 40.9068 43.4731 40.3794C44.0006 39.8519 44.2969 39.1365 44.2969 38.3906V17.2031C44.2969 16.4572 44.0006 15.7418 43.4731 15.2144C42.9457 14.6869 42.2303 14.3906 41.4844 14.3906Z" fill="#D32F2F"/>
<path d="M38.8594 18.6094H28.4531C27.9354 18.6094 27.5156 19.0291 27.5156 19.5469V20.6719C27.5156 21.1896 27.9354 21.6094 28.4531 21.6094H38.8594C39.3771 21.6094 39.7969 21.1896 39.7969 20.6719V19.5469C39.7969 19.0291 39.3771 18.6094 38.8594 18.6094Z" fill="white"/>
<path d="M38.8594 18.6094H36.0469C36.2955 18.6094 36.534 18.7081 36.7098 18.884C36.8856 19.0598 36.9844 19.2982 36.9844 19.5469V20.6719C36.9844 20.9205 36.8856 21.159 36.7098 21.3348C36.534 21.5106 36.2955 21.6094 36.0469 21.6094H38.8594C39.108 21.6094 39.3465 21.5106 39.5223 21.3348C39.6981 21.159 39.7969 20.9205 39.7969 20.6719V19.5469C39.7969 19.2982 39.6981 19.0598 39.5223 18.884C39.3465 18.7081 39.108 18.6094 38.8594 18.6094Z" fill="#E1E1E3"/>
<path d="M10.8281 18.6094H6.14062C5.62286 18.6094 5.20312 19.0291 5.20312 19.5469V22.4531C5.20312 22.9709 5.62286 23.3906 6.14062 23.3906H10.8281C11.3459 23.3906 11.7656 22.9709 11.7656 22.4531V19.5469C11.7656 19.0291 11.3459 18.6094 10.8281 18.6094Z" fill="#F8BE32"/>
<path d="M10.8281 18.6094H8.82471C9.07335 18.6094 9.3118 18.7081 9.48762 18.884C9.66343 19.0598 9.76221 19.2982 9.76221 19.5469V22.4531C9.76221 22.7018 9.66343 22.9402 9.48762 23.116C9.3118 23.2919 9.07335 23.3906 8.82471 23.3906H10.8281C11.0768 23.3906 11.3152 23.2919 11.4911 23.116C11.6669 22.9402 11.7656 22.7018 11.7656 22.4531V19.5469C11.7656 19.2982 11.6669 19.0598 11.4911 18.884C11.3152 18.7081 11.0768 18.6094 10.8281 18.6094Z" fill="#FED030"/>
<path d="M19.8825 34.875H5.2041C5.01762 34.875 4.83878 34.8009 4.70692 34.6691C4.57506 34.5372 4.50098 34.3584 4.50098 34.1719C4.50098 33.9854 4.57506 33.8066 4.70692 33.6747C4.83878 33.5428 5.01762 33.4688 5.2041 33.4688H19.8825C20.069 33.4688 20.2479 33.5428 20.3797 33.6747C20.5116 33.8066 20.5857 33.9854 20.5857 34.1719C20.5857 34.3584 20.5116 34.5372 20.3797 34.6691C20.2479 34.8009 20.069 34.875 19.8825 34.875ZM13.2657 37.6875H5.23598C5.0495 37.6875 4.87065 37.6134 4.73879 37.4816C4.60693 37.3497 4.53285 37.1709 4.53285 36.9844C4.53285 36.7979 4.60693 36.6191 4.73879 36.4872C4.87065 36.3553 5.0495 36.2812 5.23598 36.2812H13.2657C13.4521 36.2812 13.631 36.3553 13.7628 36.4872C13.8947 36.6191 13.9688 36.7979 13.9688 36.9844C13.9688 37.1709 13.8947 37.3497 13.7628 37.4816C13.631 37.6134 13.4521 37.6875 13.2657 37.6875Z" fill="white"/>
<path d="M37.6875 37.8281C38.8525 37.8281 39.7969 36.8837 39.7969 35.7188C39.7969 34.5538 38.8525 33.6094 37.6875 33.6094C36.5225 33.6094 35.5781 34.5538 35.5781 35.7188C35.5781 36.8837 36.5225 37.8281 37.6875 37.8281Z" fill="#F9A242"/>
<path d="M37.6875 33.6094C37.448 33.6094 37.2102 33.6503 36.9844 33.7303C37.3954 33.8758 37.7513 34.1452 38.003 34.5013C38.2546 34.8574 38.3898 35.2827 38.3898 35.7188C38.3898 36.1548 38.2546 36.5801 38.003 36.9362C37.7513 37.2923 37.3954 37.5617 36.9844 37.7072C37.274 37.8097 37.5826 37.8478 37.8885 37.8186C38.1944 37.7895 38.4902 37.6938 38.7553 37.5384C39.0203 37.383 39.2482 37.1715 39.4231 36.9189C39.5979 36.6662 39.7154 36.3783 39.7673 36.0755C39.8193 35.7726 39.8045 35.4621 39.7239 35.1656C39.6433 34.8691 39.4989 34.5937 39.3008 34.3588C39.1027 34.1239 38.8557 33.9352 38.577 33.8057C38.2984 33.6763 37.9948 33.6093 37.6875 33.6094Z" fill="#F69531"/>
<path d="M34.875 37.8281C36.04 37.8281 36.9844 36.8837 36.9844 35.7188C36.9844 34.5538 36.04 33.6094 34.875 33.6094C33.71 33.6094 32.7656 34.5538 32.7656 35.7188C32.7656 36.8837 33.71 37.8281 34.875 37.8281Z" fill="#F8BE32"/>
<path d="M34.875 33.6094C34.6355 33.6094 34.3977 33.6503 34.1719 33.7303C34.5829 33.8758 34.9388 34.1452 35.1905 34.5013C35.4421 34.8574 35.5773 35.2827 35.5773 35.7188C35.5773 36.1548 35.4421 36.5801 35.1905 36.9362C34.9388 37.2923 34.5829 37.5617 34.1719 37.7072C34.4615 37.8097 34.7701 37.8478 35.076 37.8186C35.3819 37.7895 35.6777 37.6938 35.9428 37.5384C36.2078 37.383 36.4357 37.1715 36.6106 36.9189C36.7854 36.6662 36.9029 36.3783 36.9548 36.0755C37.0068 35.7726 36.992 35.4621 36.9114 35.1656C36.8308 34.8691 36.6864 34.5937 36.4883 34.3588C36.2902 34.1239 36.0432 33.9352 35.7645 33.8057C35.4859 33.6763 35.1823 33.6093 34.875 33.6094Z" fill="#FED030"/>
<path d="M11.3296 30H5.23584C5.04936 30 4.87052 29.9259 4.73866 29.7941C4.60679 29.6622 4.53271 29.4834 4.53271 29.2969C4.53271 29.1104 4.60679 28.9316 4.73866 28.7997C4.87052 28.6678 5.04936 28.5938 5.23584 28.5938H11.3296C11.5161 28.5938 11.6949 28.6678 11.8268 28.7997C11.9586 28.9316 12.0327 29.1104 12.0327 29.2969C12.0327 29.4834 11.9586 29.6622 11.8268 29.7941C11.6949 29.9259 11.5161 30 11.3296 30ZM20.818 30H14.7243C14.5378 30 14.359 29.9259 14.2271 29.7941C14.0952 29.6622 14.0212 29.4834 14.0212 29.2969C14.0212 29.1104 14.0952 28.9316 14.2271 28.7997C14.359 28.6678 14.5378 28.5938 14.7243 28.5938H20.818C21.0045 28.5938 21.1834 28.6678 21.3152 28.7997C21.4471 28.9316 21.5212 29.1104 21.5212 29.2969C21.5212 29.4834 21.4471 29.6622 21.3152 29.7941C21.1834 29.9259 21.0045 30 20.818 30ZM30.3074 30H24.2137C24.0272 30 23.8483 29.9259 23.7165 29.7941C23.5846 29.6622 23.5105 29.4834 23.5105 29.2969C23.5105 29.1104 23.5846 28.9316 23.7165 28.7997C23.8483 28.6678 24.0272 28.5938 24.2137 28.5938H30.3074C30.4939 28.5938 30.6727 28.6678 30.8046 28.7997C30.9364 28.9316 31.0105 29.1104 31.0105 29.2969C31.0105 29.4834 30.9364 29.6622 30.8046 29.7941C30.6727 29.9259 30.4939 30 30.3074 30ZM39.7968 30H33.703C33.5165 30 33.3377 29.9259 33.2058 29.7941C33.074 29.6622 32.9999 29.4834 32.9999 29.2969C32.9999 29.1104 33.074 28.9316 33.2058 28.7997C33.3377 28.6678 33.5165 28.5938 33.703 28.5938H39.7968C39.9833 28.5938 40.1621 28.6678 40.294 28.7997C40.4258 28.9316 40.4999 29.1104 40.4999 29.2969C40.4999 29.4834 40.4258 29.6622 40.294 29.7941C40.1621 29.9259 39.9833 30 39.7968 30Z" fill="white"/>
</svg>
