<svg width="48" height="48" viewBox="0 0 48 48" fill="none" xmlns="http://www.w3.org/2000/svg">
<rect x="5" y="7" width="17" height="25" fill="#CFEBFF"/>
<path d="M15.7055 16.0211C16.2336 16.0211 16.6655 15.5891 16.6655 15.0611C16.6655 14.5331 16.2336 14.1011 15.7055 14.1011H8.57279C8.04474 14.1011 7.61279 14.5331 7.61279 15.0611V24.1619C7.61279 24.69 8.04474 25.1219 8.57279 25.1219H16.4159C16.3967 25.0835 16.3679 25.0452 16.3392 25.0067L15.792 24.2387C15.5712 23.9124 15.3982 23.5667 15.2736 23.2019H9.53279V16.0211H15.7055Z" fill="#0FBA00"/>
<path d="M15.1104 21.2052L19.5264 16.914C19.9104 16.5396 19.92 15.9348 19.5456 15.5508C19.1808 15.1764 18.5664 15.1668 18.1921 15.5316L14.064 19.5348L12.3648 17.874C11.9904 17.4996 11.376 17.5092 11.0017 17.8932C10.6368 18.2676 10.6464 18.8724 11.0208 19.2468L13.3921 21.5604C14.1613 22.3298 15.1104 21.2052 15.1104 21.2052Z" fill="#0FBA00"/>
<path d="M6.34552 31.8515C5.81747 31.8515 5.38552 31.4291 5.38552 30.8915V8.32191C5.38552 7.79392 5.81747 7.36191 6.34552 7.36191H21.0816C21.6192 7.36191 22.0416 7.79392 22.0416 8.32191V18.7091C22.3103 18.93 22.5599 19.1987 22.7712 19.4963L25.4783 23.3748C25.632 23.25 25.8047 23.1348 25.9775 23.0291L25.9871 5.39392C25.9871 3.21476 24.2112 1.43872 22.032 1.43872H5.40474C3.21591 1.43872 1.43994 3.21476 1.43994 5.39392V33.8387C1.43994 36.0179 3.21592 37.7939 5.40474 37.7939H19.8912C19.8336 37.6019 19.7855 37.41 19.7471 37.2083C19.344 35.4419 19.7088 33.4643 20.6592 31.8515H6.34552ZM15.0912 35.7491H12.3455C11.8079 35.7491 11.3855 35.3171 11.3855 34.7891C11.3855 34.2515 11.8079 33.8291 12.3455 33.8291H15.0912C15.6192 33.8291 16.0512 34.2515 16.0512 34.7891C16.0512 35.3171 15.6192 35.7491 15.0912 35.7491Z" fill="#292D32"/>
<path d="M25.4705 25.8433L25.437 25.7956L25.4362 25.7945L21.6066 20.314L21.6062 20.3134C20.7309 19.0647 18.9868 18.7279 17.7043 19.579L17.7043 19.579L17.7016 19.5808C16.4552 20.4195 16.0598 22.1116 16.9538 23.4173L16.9537 23.4173L16.9575 23.4226L17.5035 24.1985C17.5037 24.1988 17.5039 24.199 17.5041 24.1993C21.7278 30.2548 22.0753 30.7003 22.3844 31.1711C22.4544 31.2776 22.5224 31.3855 22.633 31.5601C21.2801 33.0134 20.7405 35.1658 21.1396 36.9376C21.2755 37.6231 21.5455 38.3033 21.9639 38.906L21.9666 38.9107C21.9763 38.9276 21.9903 38.9518 22.0086 38.9828C22.0452 39.0448 22.0988 39.134 22.1689 39.2459C22.309 39.4695 22.515 39.7844 22.7814 40.1543C23.3131 40.8924 24.0913 41.8573 25.0729 42.7533C26.9523 44.4686 29.679 46.0136 32.8699 45.0295L33.1706 45.4528C33.1711 45.4534 33.1715 45.454 33.172 45.4546C34.3482 47.1393 36.6889 47.5641 38.4081 46.4184C38.4083 46.4183 38.4084 46.4181 38.4086 46.418L45.4051 41.7921C47.1353 40.6496 47.5829 38.3461 46.3952 36.6456C46.3947 36.6449 46.3942 36.6441 46.3937 36.6434L46.0015 36.0702C46.0018 36.0673 46.002 36.0643 46.0023 36.0613C46.013 35.9312 46.0236 35.7444 46.0248 35.5071C46.0272 35.0325 45.9918 34.3555 45.8438 33.5265C45.5475 31.8675 44.8008 29.6058 43.0121 27.1455L38.6756 20.9288L38.675 20.9278C37.8073 19.6899 36.1055 19.3258 34.8508 20.1543L34.8508 20.1543L34.8453 20.158C34.1898 20.6035 33.7958 21.2961 33.7086 22.0345C33.3461 21.7856 32.8945 21.5763 32.3638 21.5395C31.8128 21.5012 31.2246 21.6523 30.6171 22.0553C29.8695 22.5475 29.4618 23.3154 29.3945 24.1038C27.8988 23.4067 25.9294 24.1744 25.4705 25.8433Z" fill="#FFDBC6" stroke="#E7C4B0"/>
</svg>
