<svg width="25" height="25" viewBox="0 0 25 25" fill="none" xmlns="http://www.w3.org/2000/svg">
<path fill-rule="evenodd" clip-rule="evenodd" d="M0.90244 7.54994C0.253888 8.90275 0.481552 10.485 0.93688 13.6495L1.2714 15.9742C1.8563 20.0392 2.14875 22.0717 3.55883 23.2858C4.9689 24.5 7.03684 24.5 11.1727 24.5H13.8273C17.9631 24.5 20.0311 24.5 21.4412 23.2858C22.8512 22.0717 23.1436 20.0392 23.7286 15.9742L24.0631 13.6495C24.5185 10.485 24.7461 8.90275 24.0975 7.54994C23.449 6.19712 22.0686 5.37481 19.3077 3.73017L17.6458 2.74024C15.1388 1.24675 13.8852 0.5 12.5 0.5C11.1148 0.5 9.86125 1.24675 7.3541 2.74024L5.69229 3.73017C2.93142 5.37481 1.55099 6.19712 0.90244 7.54994ZM8.00012 19.6998C8.00012 19.2027 8.40307 18.7998 8.90012 18.7998H16.1001C16.5972 18.7998 17.0001 19.2027 17.0001 19.6998C17.0001 20.1968 16.5972 20.5998 16.1001 20.5998H8.90012C8.40307 20.5998 8.00012 20.1968 8.00012 19.6998Z" fill="#292D32"/>
</svg>
